<svg width="48" height="48" viewBox="0 0 48 48" fill="none" xmlns="http://www.w3.org/2000/svg">
<path d="M47.9641 8.16328L47.9645 8.16051C48.2393 6.44174 46.8762 4.96631 45.3341 5.00107C44.7628 5.00431 44.1632 5.19137 43.6883 5.57354C43.3006 5.88549 42.9904 6.30163 42.8028 6.84586C42.7122 7.10887 42.4669 8.6213 42.4669 8.6213C42.3085 9.49469 42.0729 10.7464 41.7651 12.25C41.1484 15.2631 40.2478 19.2602 39.1073 23.24C37.9577 27.2521 36.6036 31.105 35.1142 33.9037C34.3666 35.3084 33.656 36.3102 33.0236 36.9281C32.389 37.5483 32.0582 37.5714 32.0006 37.5714C31.9663 37.5714 31.9244 37.5677 31.841 37.5226C31.7414 37.4688 31.5678 37.3455 31.3335 37.0784C30.8412 36.5172 30.2905 35.5654 29.7121 34.1525C28.5613 31.3413 27.6131 27.517 26.6019 23.4003C26.5931 23.3603 26.5833 23.3205 26.5726 23.2808L26.5516 23.1952C25.5785 19.2333 24.5394 15.0022 23.212 11.7596C22.5404 10.1189 21.716 8.52611 20.6458 7.30608C19.5458 6.05204 18.0018 5 16.0003 5C14.0579 5 12.472 5.99468 11.2837 7.15579C10.0932 8.31909 9.07455 9.86202 8.19712 11.5108C6.43646 14.8192 4.95717 19.1093 3.7735 23.24C2.58056 27.403 1.64779 31.5488 1.01451 34.6428C0.697251 36.1928 0.453761 37.4858 0.289176 38.3936C0.206859 38.8477 0.144211 39.2058 0.101878 39.452L0.0536748 39.7356L0.0363919 39.8395C-0.142783 40.9337 0.350268 42.0288 1.28156 42.605C2.21285 43.1813 3.46892 43.1176 4.26684 42.4571L21.6879 25.7716L6.6323 33.8657C7.21606 31.1653 7.97743 27.9571 8.89357 24.76C10.0433 20.7479 11.3974 16.895 12.8867 14.0963C13.6343 12.6915 14.3449 11.6898 14.9773 11.0719C15.6119 10.4517 15.9428 10.4286 16.0003 10.4286C16.0346 10.4286 16.0765 10.4323 16.1599 10.4774C16.2595 10.5312 16.4331 10.6545 16.6674 10.9216C17.1597 11.4828 17.7104 12.4346 18.2888 13.8475C19.2805 16.2701 20.8272 22.3056 21.6879 25.7716C22.3964 28.508 23.8823 34.0256 24.7889 36.2404C25.4606 37.8811 26.2849 39.4739 27.3551 40.6939C28.4551 41.948 29.9991 43 32.0006 43C33.943 43 35.5289 42.0053 36.7172 40.8442C37.9077 39.6809 38.9264 38.138 39.8038 36.4892C41.5645 33.1808 43.0437 28.8907 44.2274 24.76C45.4204 20.597 46.3531 16.4512 46.9864 13.3572C47.3037 11.8071 47.5472 10.5142 47.7117 9.60637C47.7973 9.13452 47.8797 8.66213 47.9598 8.18929L47.9641 8.16328Z" fill="url(#paint0_linear_1987_6722)"/>
<defs>
<linearGradient id="paint0_linear_1987_6722" x1="-1.4232e-07" y1="24.5758" x2="48.8889" y2="24.5758" gradientUnits="userSpaceOnUse">
<stop stop-color="#007BFF"/>
<stop offset="1" stop-color="#00C2ED"/>
</linearGradient>
</defs>
</svg>
