<svg width="756" height="588" viewBox="0 0 756 588" fill="none" xmlns="http://www.w3.org/2000/svg">
<path fill-rule="evenodd" clip-rule="evenodd" d="M755.441 49.3216L715.529 42.681C755.441 49.3217 755.441 49.3216 755.441 49.3216L755.434 49.3643L755.366 49.7661C754.105 57.0703 752.807 64.3674 751.46 71.6564C748.868 85.6804 745.033 105.653 740.036 129.596C730.062 177.39 715.371 241.432 696.582 305.74C677.939 369.549 654.64 435.819 626.91 486.925C613.09 512.395 597.047 536.229 578.296 554.199C559.58 572.135 534.603 587.5 504.009 587.5C472.486 587.5 448.169 571.249 430.843 551.877C413.987 533.031 401.004 508.426 390.426 483.082C376.146 448.869 352.744 363.636 341.585 321.367L67.2027 579.114C54.6355 589.317 34.8524 590.301 20.1846 581.399C5.51672 572.498 -2.24883 555.581 0.573172 538.678L42.0023 545.571C0.573173 538.678 0.573172 538.678 0.573172 538.678L0.845377 537.073L1.60457 532.693C2.27132 528.89 3.25802 523.358 4.55452 516.344C7.14674 502.32 10.9817 482.347 15.9785 458.404C25.9527 410.61 40.6438 346.568 59.4326 282.26C78.0755 218.451 101.374 152.181 129.105 101.075C142.924 75.6054 158.968 51.7712 177.719 33.8012C196.434 15.8652 221.412 0.5 252.005 0.5C283.528 0.5 307.846 16.7512 325.172 36.1229C342.028 54.9692 355.011 79.5742 365.589 104.918C386.495 155.008 402.862 220.367 418.187 281.569L418.518 282.89C418.687 283.503 418.841 284.119 418.981 284.737C434.907 348.328 449.84 407.403 467.965 450.829C477.075 472.655 485.749 487.358 493.502 496.027C497.193 500.153 499.927 502.057 501.496 502.889C502.809 503.585 503.47 503.643 504.009 503.643C504.916 503.643 510.126 503.285 520.122 493.705C530.083 484.16 541.274 468.686 553.048 446.985C576.506 403.753 597.833 344.237 615.941 282.26C633.902 220.782 648.087 159.038 657.8 112.493C662.647 89.267 666.359 69.9312 668.853 56.4396C668.853 56.4396 672.716 33.0765 674.144 29.0137C677.099 20.6067 681.984 14.1784 688.09 9.35966C695.57 3.45615 705.015 0.566576 714.012 0.516455C738.3 -0.0204731 759.768 22.7711 755.441 49.3216ZM341.585 321.367C328.028 267.827 303.668 174.593 288.049 137.171C278.94 115.345 270.266 100.642 262.512 91.973C258.822 87.8467 256.088 85.9427 254.519 85.1111C253.205 84.4148 252.545 84.3571 252.005 84.3571C251.098 84.3571 245.888 84.7151 235.892 94.2947C225.932 103.84 214.741 119.314 202.966 141.014C179.508 184.247 158.181 243.763 140.074 305.74C125.645 355.127 113.653 404.686 104.459 446.399L341.585 321.367Z" fill="url(#paint0_linear_1180_5100)"/>
<defs>
<linearGradient id="paint0_linear_1180_5100" x1="756.006" y1="293.999" x2="-0.00517047" y2="294" gradientUnits="userSpaceOnUse">
<stop stop-color="#00C2ED"/>
<stop offset="1" stop-color="#007BFF"/>
</linearGradient>
</defs>
</svg>
