<svg width="461" height="109" viewBox="0 0 461 109" fill="none" xmlns="http://www.w3.org/2000/svg">
<path fill-rule="evenodd" clip-rule="evenodd" d="M138.031 9.58797L130.786 8.36619C138.031 9.58801 138.031 9.58797 138.031 9.58797L138.03 9.59583L138.017 9.66975C137.789 11.0136 137.553 12.3562 137.308 13.6973C136.838 16.2775 136.142 19.9521 135.234 24.3574C133.424 33.1509 130.757 44.9337 127.346 56.7655C123.962 68.5054 119.732 80.6982 114.698 90.1011C112.19 94.7871 109.277 99.1723 105.873 102.478C102.476 105.778 97.9414 108.605 92.3877 108.605C86.6652 108.605 82.2507 105.615 79.1055 102.051C76.0456 98.5839 73.6888 94.0569 71.7685 89.3939C69.1762 83.0993 64.9279 67.4176 62.9023 59.6407L13.0927 107.063C10.8113 108.94 7.22001 109.121 4.5573 107.483C1.8946 105.845 0.48489 102.733 0.997177 99.623L8.51796 100.891C0.997177 99.623 0.997177 99.623 0.997177 99.623L1.04659 99.3276L1.18441 98.5218C1.30545 97.822 1.48457 96.8042 1.71992 95.5137C2.1905 92.9334 2.88667 89.2588 3.79376 84.8535C5.60442 76.0601 8.27134 64.2773 11.6821 52.4455C15.0664 40.7055 19.296 28.5128 24.3299 19.1098C26.8387 14.4238 29.7511 10.0387 33.155 6.73244C36.5525 3.43246 41.0868 0.605469 46.6406 0.605469C52.363 0.605469 56.7775 3.59548 59.9227 7.1596C62.9826 10.6271 65.3395 15.154 67.2598 19.817C71.055 29.0329 74.0261 41.058 76.8082 52.3183L76.8682 52.5615C76.8988 52.6742 76.9268 52.7875 76.9522 52.9011C79.8433 64.6011 82.5542 75.4701 85.8445 83.4599C87.4982 87.4755 89.0728 90.1806 90.4804 91.7757C91.1503 92.5349 91.6466 92.8852 91.9314 93.0382C92.1698 93.1663 92.2898 93.1769 92.3877 93.1769C92.5523 93.1769 93.4981 93.111 95.3127 91.3485C97.1209 89.5922 99.1525 86.7453 101.29 82.7527C105.548 74.7985 109.42 63.8483 112.707 52.4455C115.968 41.1344 118.543 29.7744 120.306 21.2107C121.186 16.9374 121.86 13.3799 122.312 10.8976C122.312 10.8976 123.014 6.59909 123.273 5.8516C123.809 4.30483 124.696 3.12211 125.805 2.23553C127.162 1.14936 128.877 0.617718 130.51 0.608496C134.919 0.509709 138.817 4.70305 138.031 9.58797ZM62.9023 59.6407C60.4412 49.7899 56.0191 32.6362 53.1837 25.7511C51.53 21.7354 49.9554 19.0303 48.5479 17.4353C47.8779 16.6761 47.3816 16.3258 47.0968 16.1728C46.8584 16.0447 46.7385 16.034 46.6406 16.034C46.4759 16.034 45.5301 16.0999 43.7155 17.8624C41.9073 19.6187 39.8758 22.4657 37.7383 26.4582C33.4799 34.4124 29.6083 45.3626 26.3212 56.7655C23.7018 65.852 21.525 74.9701 19.8559 82.6448L62.9023 59.6407Z" fill="url(#paint0_linear_356_72)"/>
<path d="M443.969 95.6454C438.749 95.6454 434.873 94.4856 432.34 92.1662C429.807 89.8467 428.118 86.7155 427.274 82.7724C426.507 78.752 426.123 74.2291 426.123 69.2036V53.5472C426.123 47.362 426.622 42.2979 427.62 38.3548C428.617 34.3344 430.383 31.3578 432.916 29.4249C435.525 27.492 439.21 26.5256 443.969 26.5256C448.651 26.5256 452.22 27.4147 454.676 29.1929C457.132 30.9712 458.782 33.4839 459.627 36.7312C460.471 39.9784 460.893 43.7282 460.893 47.9805V51.2278H453.064V47.9805C453.064 44.0375 452.757 40.9835 452.143 38.8187C451.606 36.6539 450.646 35.1462 449.265 34.2957C447.96 33.368 446.194 32.9041 443.969 32.9041C441.359 32.9041 439.363 33.5226 437.982 34.7596C436.6 35.9967 435.679 38.0455 435.218 40.9062C434.758 43.6895 434.528 47.4393 434.528 52.1556V70.9432C434.528 77.6696 435.18 82.4245 436.485 85.2078C437.79 87.9139 440.323 89.2669 444.084 89.2669C446.693 89.2669 448.651 88.687 449.955 87.5273C451.26 86.2902 452.105 84.4733 452.488 82.0766C452.872 79.6798 453.064 76.7032 453.064 73.1467V69.4355H460.893V72.6828C460.893 77.167 460.471 81.1488 459.627 84.628C458.859 88.0298 457.247 90.7359 454.791 92.7461C452.335 94.6789 448.727 95.6454 443.969 95.6454Z" fill="black"/>
<path d="M391.278 95.6454C388.592 95.6454 386.251 94.9882 384.255 93.6738C382.26 92.2822 380.686 90.4653 379.535 88.2231C378.46 85.9037 377.923 83.3909 377.923 80.6849C377.923 77.283 378.384 74.3837 379.305 71.9869C380.302 69.5901 381.837 67.464 383.91 65.6084C386.059 63.6755 388.822 61.82 392.199 60.0417C395.653 58.1861 399.837 56.1373 404.749 53.8952V49.1403C404.749 45.0426 404.48 41.834 403.943 39.5145C403.483 37.1177 402.638 35.4168 401.41 34.4117C400.259 33.4066 398.609 32.9041 396.459 32.9041C394.694 32.9041 393.121 33.252 391.739 33.9478C390.357 34.6437 389.244 35.8421 388.4 37.543C387.556 39.1666 387.134 41.4474 387.134 44.3854V46.7048L378.844 46.5889C378.921 39.7851 380.341 34.7596 383.104 31.5124C385.944 28.1878 390.549 26.5256 396.92 26.5256C402.907 26.5256 407.09 28.3425 409.469 31.9763C411.926 35.5328 413.154 41.0995 413.154 48.6764V81.2647C413.154 82.4245 413.192 83.9321 413.269 85.7877C413.346 87.5659 413.422 89.2669 413.499 90.8905C413.576 92.5141 413.653 94.7949 413.729 95.6454H406.246C406.092 94.1764 405.862 91.509 405.555 89.7308C405.248 87.8752 405.056 86.4062 404.979 85.3238C404.058 88.0298 402.408 90.4266 400.029 92.5141C397.726 94.6016 394.809 95.6454 391.278 95.6454ZM393.927 88.4551C395.615 88.4551 397.15 88.0298 398.532 87.1794C399.913 86.3289 401.142 85.3238 402.216 84.1641C403.291 82.927 404.135 81.69 404.749 80.4529V59.5778C401.449 61.2788 398.609 62.8251 396.229 64.2167C393.926 65.6084 392.046 66.9614 390.588 68.2758C389.129 69.5901 388.055 71.0978 387.364 72.7987C386.673 74.4223 386.328 76.3552 386.328 78.5974C386.328 82.1539 387.095 84.7053 388.63 86.2516C390.165 87.7206 391.931 88.4551 393.927 88.4551Z" fill="black"/>
<path d="M344.635 95.6454V26.5256H353.155V36.3833C355.304 32.8268 357.76 30.314 360.524 28.845C363.287 27.2987 365.935 26.5256 368.468 26.5256C368.698 26.5256 368.928 26.5256 369.159 26.5256C369.389 26.5256 369.657 26.5642 369.964 26.6415V35.6874C369.427 35.4555 368.775 35.3008 368.007 35.2235C367.24 35.0689 366.51 34.9916 365.82 34.9916C363.21 34.9916 360.831 35.6101 358.681 36.8471C356.609 38.0842 354.767 40.0557 353.155 42.7618V95.6454H344.635Z" fill="black"/>
<path d="M307.949 95.6454C305.262 95.6454 302.921 94.9882 300.926 93.6738C298.93 92.2822 297.356 90.4653 296.205 88.2231C295.131 85.9037 294.593 83.3909 294.593 80.6849C294.593 77.283 295.054 74.3837 295.975 71.9869C296.973 69.5901 298.508 67.464 300.58 65.6084C302.729 63.6755 305.493 61.82 308.87 60.0417C312.324 58.1861 316.507 56.1373 321.419 53.8952V49.1403C321.419 45.0426 321.151 41.834 320.613 39.5145C320.153 37.1177 319.309 35.4168 318.08 34.4117C316.929 33.4066 315.279 32.9041 313.13 32.9041C311.364 32.9041 309.791 33.252 308.409 33.9478C307.028 34.6437 305.915 35.8421 305.07 37.543C304.226 39.1666 303.804 41.4474 303.804 44.3854V46.7048L295.514 46.5889C295.591 39.7851 297.011 34.7596 299.774 31.5124C302.614 28.1878 307.22 26.5256 313.59 26.5256C319.577 26.5256 323.76 28.3425 326.14 31.9763C328.596 35.5328 329.824 41.0995 329.824 48.6764V81.2647C329.824 82.4245 329.862 83.9321 329.939 85.7877C330.016 87.5659 330.093 89.2669 330.169 90.8905C330.246 92.5141 330.323 94.7949 330.4 95.6454H322.916C322.763 94.1764 322.532 91.509 322.225 89.7308C321.918 87.8752 321.726 86.4062 321.65 85.3238C320.729 88.0298 319.078 90.4266 316.699 92.5141C314.396 94.6016 311.479 95.6454 307.949 95.6454ZM310.597 88.4551C312.285 88.4551 313.821 88.0298 315.202 87.1794C316.584 86.3289 317.812 85.3238 318.886 84.1641C319.961 82.927 320.805 81.69 321.419 80.4529V59.5778C318.119 61.2788 315.279 62.8251 312.899 64.2167C310.597 65.6084 308.716 66.9614 307.258 68.2758C305.8 69.5901 304.725 71.0978 304.034 72.7987C303.343 74.4223 302.998 76.3552 302.998 78.5974C302.998 82.1539 303.766 84.7053 305.301 86.2516C306.836 87.7206 308.601 88.4551 310.597 88.4551Z" fill="black"/>
<path d="M278.077 95.6454C274.853 95.6454 272.359 95.0269 270.594 93.7898C268.905 92.4755 267.715 90.7359 267.024 88.571C266.41 86.3289 266.103 83.7775 266.103 80.9168V48.5026H257.411V42.5606H266.103V26.5256H274.508V42.5606H285.561V48.5026H274.508V80.105C274.508 83.3523 274.853 85.6717 275.544 87.0634C276.312 88.3777 277.924 89.0349 280.38 89.0349C281.071 89.0349 281.838 88.9963 282.683 88.919C283.604 88.7643 284.448 88.6097 285.215 88.4551V94.9495C284.064 95.1815 282.874 95.3361 281.646 95.4134C280.418 95.5681 279.229 95.6454 278.077 95.6454Z" fill="black"/>
<path d="M213.331 95.6454V26.5256H221.736V34.5277C223.885 32.2082 226.303 30.314 228.989 28.845C231.675 27.2987 234.592 26.5256 237.739 26.5256C239.965 26.5256 241.846 27.1054 243.381 28.2652C244.916 29.3476 246.067 30.9712 246.835 33.136C247.602 35.2235 247.986 37.7749 247.986 40.7902V95.6454H239.581V42.6458C239.581 39.1666 239.044 36.7312 237.969 35.3395C236.972 33.8705 235.398 33.136 233.249 33.136C231.33 33.136 229.373 33.7159 227.377 34.8756C225.381 36.0353 223.501 37.543 221.736 39.3985V95.6454H213.331Z" fill="black"/>
<path d="M177.22 95.6454C174.534 95.6454 172.193 94.9882 170.197 93.6738C168.202 92.2822 166.628 90.4653 165.477 88.2231C164.402 85.9037 163.865 83.3909 163.865 80.6849C163.865 77.283 164.325 74.3837 165.246 71.9869C166.244 69.5901 167.779 67.464 169.852 65.6084C172.001 63.6755 174.764 61.82 178.141 60.0417C181.595 58.1861 185.779 56.1373 190.691 53.8952V49.1403C190.691 45.0426 190.422 41.834 189.885 39.5145C189.424 37.1177 188.58 35.4168 187.352 34.4117C186.201 33.4066 184.55 32.9041 182.401 32.9041C180.636 32.9041 179.062 33.252 177.681 33.9478C176.299 34.6437 175.186 35.8421 174.342 37.543C173.498 39.1666 173.076 41.4474 173.076 44.3854V46.7048L164.786 46.5889C164.863 39.7851 166.283 34.7596 169.046 31.5124C171.886 28.1878 176.491 26.5256 182.862 26.5256C188.849 26.5256 193.032 28.3425 195.411 31.9763C197.868 35.5328 199.096 41.0995 199.096 48.6764V81.2647C199.096 82.4245 199.134 83.9321 199.211 85.7877C199.288 87.5659 199.364 89.2669 199.441 90.8905C199.518 92.5141 199.595 94.7949 199.671 95.6454H192.188C192.034 94.1764 191.804 91.509 191.497 89.7308C191.19 87.8752 190.998 86.4062 190.921 85.3238C190 88.0298 188.35 90.4266 185.97 92.5141C183.668 94.6016 180.751 95.6454 177.22 95.6454ZM179.868 88.4551C181.557 88.4551 183.092 88.0298 184.474 87.1794C185.855 86.3289 187.083 85.3238 188.158 84.1641C189.233 82.927 190.077 81.69 190.691 80.4529V59.5778C187.39 61.2788 184.55 62.8251 182.171 64.2167C179.868 65.6084 177.988 66.9614 176.53 68.2758C175.071 69.5901 173.997 71.0978 173.306 72.7987C172.615 74.4223 172.27 76.3552 172.27 78.5974C172.27 82.1539 173.037 84.7053 174.572 86.2516C176.107 87.7206 177.873 88.4551 179.868 88.4551Z" fill="black"/>
<defs>
<linearGradient id="paint0_linear_356_72" x1="0.893126" y1="56.2419" x2="135.692" y2="56.2419" gradientUnits="userSpaceOnUse">
<stop stop-color="#007BFF"/>
<stop offset="1" stop-color="#00C2ED"/>
</linearGradient>
</defs>
</svg>
