<svg width="80" height="21" viewBox="0 0 80 21" fill="none" xmlns="http://www.w3.org/2000/svg">
<path d="M0 3.12697H3.10601V14.3635H8.85616V17.2103H0V3.12697Z" fill="#B2B2B2"/>
<path d="M10.2292 7.66139H13.2131V17.205H10.2292V7.66139ZM11.7211 2.91674C12.0635 2.9168 12.3981 3.01768 12.6827 3.20662C12.9673 3.39555 13.1891 3.66407 13.3201 3.9782C13.4511 4.29233 13.4853 4.63798 13.4185 4.97144C13.3517 5.3049 13.1868 5.61119 12.9447 5.85158C12.7026 6.09197 12.3942 6.25567 12.0584 6.32198C11.7226 6.38829 11.3746 6.35423 11.0584 6.2241C10.7421 6.09398 10.4718 5.87363 10.2816 5.59093C10.0914 5.30823 9.98988 4.97586 9.98988 4.63587C9.98988 4.41008 10.0347 4.18651 10.1217 3.97792C10.2087 3.76932 10.3362 3.57979 10.497 3.42015C10.6577 3.26051 10.8486 3.13389 11.0586 3.04751C11.2687 2.96114 11.4938 2.9167 11.7211 2.91674Z" fill="#B2B2B2"/>
<path d="M25.6949 3.12481H28.6788V11.5414L32.0605 7.65707H35.7188L31.8025 12.0754L35.6365 17.209H31.8861L28.7186 12.4916H28.6794V17.2084H25.6955L25.6949 3.12481Z" fill="#B2B2B2"/>
<path d="M14.8676 7.66231H17.7331V8.96655H17.7738C18.06 8.47955 18.474 8.0789 18.9716 7.80738C19.4692 7.53586 20.0318 7.40367 20.5991 7.42492C23.625 7.42492 24.1819 9.40212 24.1819 11.9708V17.2044H21.1981V12.5644C21.1981 11.4568 21.1776 10.0331 19.644 10.0331C18.093 10.0331 17.8537 11.2392 17.8537 12.4838V17.2032H14.8698L14.8676 7.66231Z" fill="#B2B2B2"/>
<path d="M42.0026 11.3231C42.0083 11.0827 41.9648 10.8436 41.8747 10.6204C41.7847 10.3972 41.6499 10.1944 41.4786 10.0244C41.3074 9.8544 41.1031 9.7207 40.8783 9.63141C40.6534 9.54212 40.4127 9.49908 40.1706 9.50491C39.6493 9.47269 39.136 9.64525 38.7416 9.98537C38.3472 10.3255 38.1031 10.8059 38.062 11.3231H42.0026ZM44.5302 15.5523C44.0343 16.1494 43.411 16.6296 42.7052 16.958C41.9995 17.2864 41.2291 17.4548 40.4497 17.451C37.4659 17.451 35.0769 15.4729 35.0769 12.4097C35.0769 9.34655 37.4656 7.36936 40.4497 7.36936C43.2387 7.36936 44.9877 9.34501 44.9877 12.4097V13.3389H38.062C38.1482 13.8659 38.4233 14.3441 38.8366 14.6856C39.2498 15.027 39.7734 15.2086 40.3108 15.1969C40.7355 15.1943 41.1528 15.0863 41.5247 14.8826C41.8966 14.6789 42.2113 14.386 42.4402 14.0307L44.5302 15.5523Z" fill="#B2B2B2"/>
<path d="M51.2073 9.96826C49.7153 9.96826 48.8202 10.9576 48.8202 12.3992C48.8202 13.8408 49.715 14.8311 51.2073 14.8311C52.6995 14.8311 53.5965 13.8433 53.5965 12.3992C53.5965 10.9552 52.7011 9.96826 51.2073 9.96826ZM56.3436 17.2031H53.5965V15.9375H53.5558C53.2112 16.3979 52.7642 16.773 52.2497 17.0336C51.7351 17.2943 51.1669 17.4334 50.5894 17.4402C47.7224 17.4402 45.8338 15.3852 45.8338 12.4792C45.8338 9.8102 47.5051 7.35947 50.2524 7.35947C51.4873 7.35947 52.6408 7.69502 53.3174 8.62512H53.3566V3.12386H56.3432L56.3436 17.2031Z" fill="#B2B2B2"/>
<path d="M76.4874 17.2087H73.5036V12.5678C73.5036 11.4611 73.4837 10.0365 71.9517 10.0365C70.3976 10.0365 70.1598 11.2422 70.1598 12.4872V17.2084H67.1759V7.66477H70.0404V8.96901H70.0805C70.3672 8.48221 70.7815 8.08175 71.2792 7.81027C71.7769 7.53879 72.3394 7.40647 72.9068 7.42738C75.9311 7.42738 76.4887 9.40304 76.4887 11.9732L76.4874 17.2087ZM63.8092 6.36022C63.4667 6.36029 63.1319 6.25948 62.8471 6.07057C62.5623 5.88165 62.3403 5.6131 62.2092 5.29888C62.0781 4.98467 62.0437 4.63889 62.1105 4.30528C62.1772 3.97167 62.3421 3.66521 62.5842 3.42466C62.8263 3.18411 63.1348 3.02026 63.4707 2.95385C63.8066 2.88743 64.1548 2.92142 64.4712 3.05153C64.7876 3.18164 65.0581 3.40201 65.2484 3.68479C65.4387 3.96756 65.5404 4.30004 65.5404 4.64017C65.5405 4.86601 65.4957 5.08965 65.4087 5.29831C65.3217 5.50698 65.1942 5.69658 65.0335 5.85631C64.8727 6.01603 64.6818 6.14274 64.4718 6.2292C64.2617 6.31566 64.0365 6.36018 63.8092 6.36022ZM65.3011 17.2087H62.3141V7.66477H65.3011V17.2087ZM77.975 0.168721H60.8147C60.4252 0.164356 60.0499 0.313745 59.7713 0.58406C59.4926 0.854376 59.3335 1.2235 59.3287 1.61033V18.7241C59.3333 19.1111 59.4924 19.4805 59.771 19.7511C60.0496 20.0217 60.425 20.1714 60.8147 20.1672H77.975C78.3655 20.1721 78.7419 20.0229 79.0217 19.7523C79.3014 19.4817 79.4615 19.1119 79.4669 18.7241V1.60909C79.4614 1.2215 79.3011 0.851954 79.0214 0.581645C78.7416 0.311336 78.3653 0.162374 77.975 0.167486" fill="#B2B2B2"/>
</svg>
