<svg width="49" height="48" viewBox="0 0 49 48" fill="none" xmlns="http://www.w3.org/2000/svg">
<path fill-rule="evenodd" clip-rule="evenodd" d="M24.5 4C15.664 4 8.5 12.006 8.5 21C8.5 29.924 13.606 39.624 21.574 43.348C22.4898 43.7768 23.4887 43.9991 24.5 43.9991C25.5113 43.9991 26.5102 43.7768 27.426 43.348C35.394 39.624 40.5 29.924 40.5 21C40.5 12.006 33.336 4 24.5 4ZM24.5 24C25.5609 24 26.5783 23.5786 27.3284 22.8284C28.0786 22.0783 28.5 21.0609 28.5 20C28.5 18.9391 28.0786 17.9217 27.3284 17.1716C26.5783 16.4214 25.5609 16 24.5 16C23.4391 16 22.4217 16.4214 21.6716 17.1716C20.9214 17.9217 20.5 18.9391 20.5 20C20.5 21.0609 20.9214 22.0783 21.6716 22.8284C22.4217 23.5786 23.4391 24 24.5 24Z" fill="url(#paint0_linear_407_101)"/>
<defs>
<linearGradient id="paint0_linear_407_101" x1="8.5" y1="24.2668" x2="40.0783" y2="24.2668" gradientUnits="userSpaceOnUse">
<stop/>
<stop offset="0.87" stop-color="#717171"/>
</linearGradient>
</defs>
</svg>
