<svg width="49" height="48" viewBox="0 0 49 48" fill="none" xmlns="http://www.w3.org/2000/svg">
<path fill-rule="evenodd" clip-rule="evenodd" d="M6.844 10.344C4.5 12.686 4.5 16.458 4.5 24C4.5 31.542 4.5 35.314 6.844 37.656C9.188 39.998 12.958 40 20.5 40H28.5C36.042 40 39.814 40 42.156 37.656C44.498 35.312 44.5 31.542 44.5 24C44.5 16.458 44.5 12.686 42.156 10.344C39.812 8.002 36.042 8 28.5 8H20.5C12.958 8 9.186 8 6.844 10.344ZM37.652 15.04C37.9065 15.3456 38.0292 15.7397 37.9932 16.1357C37.9572 16.5318 37.7654 16.8973 37.46 17.152L33.068 20.812C31.294 22.292 29.858 23.488 28.588 24.304C27.268 25.154 25.982 25.69 24.5 25.69C23.018 25.69 21.732 25.152 20.41 24.304C19.142 23.488 17.706 22.29 15.932 20.814L11.54 17.154C11.2342 16.8994 11.0421 16.5337 11.0059 16.1375C10.9697 15.7412 11.0924 15.3468 11.347 15.041C11.6016 14.7352 11.9673 14.5431 12.3635 14.5069C12.7598 14.4707 13.1542 14.5934 13.46 14.848L17.78 18.446C19.646 20 20.94 21.076 22.036 21.78C23.094 22.46 23.812 22.69 24.502 22.69C25.192 22.69 25.91 22.462 26.968 21.78C28.062 21.076 29.358 20 31.224 18.446L35.542 14.846C35.8478 14.5917 36.2421 14.4693 36.6382 14.5057C37.0342 14.5421 37.3976 14.7343 37.652 15.04Z" fill="url(#paint0_linear_407_96)"/>
<defs>
<linearGradient id="paint0_linear_407_96" x1="4.5" y1="24.2138" x2="43.9729" y2="24.2138" gradientUnits="userSpaceOnUse">
<stop/>
<stop offset="0.87" stop-color="#717171"/>
</linearGradient>
</defs>
</svg>
