<svg width="49" height="48" viewBox="0 0 49 48" fill="none" xmlns="http://www.w3.org/2000/svg">
<path d="M20.0753 10.1316L21.3733 12.4576C22.5433 14.5576 22.0733 17.3096 20.2293 19.1556C20.2293 19.1556 17.9893 21.3936 22.0493 25.4516C26.1033 29.5056 28.3413 27.2716 28.3433 27.2716C30.1893 25.4256 32.9433 24.9556 35.0413 26.1256L37.3673 27.4256C40.5373 29.1936 40.9113 33.6375 38.1253 36.4255C36.4513 38.0975 34.3993 39.4016 32.1333 39.4855C28.3173 39.6315 21.8353 38.6656 15.3333 32.1656C8.83332 25.6636 7.86732 19.1816 8.01332 15.3656C8.09932 13.0996 9.40132 11.0476 11.0733 9.37355C13.8613 6.58755 18.3053 6.96155 20.0733 10.1336M26.5193 3.25955C26.5509 3.06504 26.6205 2.87865 26.7242 2.71105C26.8278 2.54344 26.9635 2.39791 27.1234 2.28275C27.2833 2.1676 27.4643 2.08508 27.6562 2.03992C27.848 1.99476 28.0468 1.98784 28.2413 2.01955C28.2913 2.02955 28.4553 2.05955 28.5413 2.07955C28.7133 2.11555 28.948 2.17555 29.2453 2.25955C29.8393 2.43355 30.6693 2.71955 31.6653 3.17555C33.6573 4.08955 36.3073 5.68755 39.0593 8.43755C41.8113 11.1896 43.4093 13.8416 44.3233 15.8336C44.7793 16.8296 45.0633 17.6576 45.2373 18.2536C45.3244 18.5532 45.3998 18.8561 45.4633 19.1616L45.4733 19.2236C45.5392 19.6196 45.4467 20.0257 45.2159 20.3542C44.985 20.6827 44.6343 20.9073 44.2393 20.9796C43.8477 21.0431 43.4469 20.949 43.1245 20.7177C42.8022 20.4865 42.5845 20.1369 42.5193 19.7456C42.4776 19.5247 42.4235 19.3063 42.3573 19.0916C42.1529 18.4047 41.8989 17.7336 41.5973 17.0836C40.8173 15.3836 39.4133 13.0356 36.9373 10.5596C34.4613 8.08355 32.1153 6.68155 30.4133 5.90155C29.7639 5.60003 29.0935 5.34603 28.4073 5.14155C28.1968 5.08243 27.9847 5.02908 27.7713 4.98155C27.3787 4.91566 27.0276 4.69837 26.7935 4.37636C26.5594 4.05436 26.4609 3.65336 26.5193 3.25955Z" fill="url(#paint0_linear_407_142)"/>
<path fill-rule="evenodd" clip-rule="evenodd" d="M27.4719 10.66C27.5259 10.4705 27.6166 10.2935 27.739 10.139C27.8614 9.98458 28.013 9.85576 28.1851 9.75992C28.3573 9.66408 28.5467 9.60311 28.7424 9.58048C28.9382 9.55785 29.1364 9.57401 29.3259 9.62804L29.3319 9.63004L29.3379 9.63204L29.3539 9.63604L29.3939 9.64804L29.5059 9.68804C29.5953 9.7187 29.7133 9.76537 29.8599 9.82804C30.1519 9.95204 30.5499 10.144 31.0399 10.434C32.0179 11.014 33.3539 11.974 34.9239 13.546C36.4939 15.116 37.4559 16.452 38.0359 17.43C38.3259 17.92 38.5179 18.318 38.6419 18.61C38.7084 18.7628 38.7684 18.9183 38.8219 19.076L38.8319 19.116L38.8379 19.132V19.138L38.8399 19.14C38.8399 19.14 38.8399 19.144 37.3999 19.556L38.8399 19.144C38.9415 19.5225 38.891 19.9256 38.6991 20.2673C38.5073 20.609 38.1893 20.862 37.8133 20.9722C37.4373 21.0825 37.0331 21.0413 36.6871 20.8573C36.3411 20.6734 36.0808 20.3614 35.9619 19.988L35.9559 19.968L35.8859 19.792C35.7584 19.5058 35.6142 19.2273 35.4539 18.958C35.0079 18.206 34.2019 17.066 32.8019 15.666C31.4019 14.266 30.2639 13.462 29.5099 13.016C29.1861 12.8259 28.8493 12.6588 28.5019 12.516L28.4819 12.508C28.1041 12.3945 27.7863 12.1366 27.5972 11.7903C27.4082 11.4441 27.3632 11.0393 27.4719 10.66Z" fill="url(#paint1_linear_407_142)"/>
<defs>
<linearGradient id="paint0_linear_407_142" x1="8" y1="21" x2="45" y2="21" gradientUnits="userSpaceOnUse">
<stop/>
<stop offset="0.87" stop-color="#717171"/>
</linearGradient>
<linearGradient id="paint1_linear_407_142" x1="33.1525" y1="9.57056" x2="33.1525" y2="21.0329" gradientUnits="userSpaceOnUse">
<stop/>
<stop offset="1" stop-color="#666666"/>
</linearGradient>
</defs>
</svg>
